<?xml version="1.0" standalone="no"?>
<!DOCTYPE svg PUBLIC "-//W3C//DTD SVG 20010904//EN"
 "http://www.w3.org/TR/2001/REC-SVG-20010904/DTD/svg10.dtd">
<svg version="1.0" xmlns="http://www.w3.org/2000/svg"
 width="314.000000pt" height="343.000000pt" viewBox="0 0 314.000000 343.000000"
 preserveAspectRatio="xMidYMid meet">

<g transform="translate(0.000000,343.000000) scale(0.100000,-0.100000)"
fill="#000000" stroke="none">
<path d="M1808 2595 c-2 -426 0 -774 4 -773 4 2 111 106 238 231 l230 228 0
545 0 544 -235 0 -235 0 -2 -775z"/>
<path d="M1140 2412 l0 -479 178 -155 c97 -85 192 -168 210 -183 l33 -28 24
23 25 23 0 639 0 638 -235 0 -235 0 0 -478z"/>
<path d="M2757 2600 c-159 -49 -291 -91 -294 -94 -3 -3 20 -33 52 -67 l57 -62
-499 -499 c-274 -274 -502 -498 -507 -498 -4 0 -135 111 -290 247 -154 135
-288 252 -297 260 -14 12 -33 -9 -160 -174 -199 -259 -268 -348 -378 -493 -52
-69 -117 -153 -144 -187 -27 -35 -47 -63 -44 -63 3 0 101 104 218 232 118 128
241 262 275 298 33 36 96 103 139 150 43 47 81 86 85 88 4 1 31 -23 60 -55 63
-69 330 -352 451 -477 l85 -89 85 74 c47 41 204 175 350 299 239 204 405 345
544 465 236 202 229 197 247 175 9 -11 37 -43 61 -70 l45 -50 32 132 c18 73
54 224 81 336 27 112 49 205 49 208 0 6 1 7 -303 -86z"/>
<path d="M470 1966 c0 -244 -3 -451 -6 -460 -13 -35 14 -11 64 56 202 267 341
450 374 489 l38 47 0 156 0 156 -235 0 -235 0 0 -444z"/>
<path d="M1281 841 c-38 -20 -60 -54 -61 -93 0 -62 32 -92 125 -117 59 -16 83
-35 69 -58 -17 -28 -87 -29 -130 -2 l-35 21 -17 -23 c-25 -35 -22 -42 28 -66
53 -27 136 -31 181 -7 61 31 75 137 22 171 -14 9 -55 26 -91 38 -52 17 -68 26
-70 43 -5 31 29 45 78 32 21 -6 42 -15 45 -20 3 -6 9 -10 13 -10 12 0 44 59
38 69 -9 14 -96 41 -130 41 -17 -1 -46 -9 -65 -19z"/>
<path d="M560 665 l0 -185 40 0 40 0 0 60 0 60 34 0 c29 0 37 -6 70 -55 41
-63 49 -68 100 -63 l36 3 -40 58 c-44 63 -47 72 -25 81 24 9 55 68 55 104 0
18 -7 46 -15 62 -25 49 -60 60 -185 60 l-110 0 0 -185z m208 99 c27 -19 28
-48 2 -74 -15 -15 -33 -20 -75 -20 l-55 0 0 55 0 55 53 0 c31 0 61 -6 75 -16z"/>
<path d="M1000 665 l0 -185 40 0 40 0 0 185 0 185 -40 0 -40 0 0 -185z"/>
<path d="M1620 665 l0 -186 142 3 142 3 1 30 0 30 -100 5 -100 5 -3 37 -3 37
88 3 88 3 3 32 3 32 -88 3 -88 3 -3 38 -3 37 100 0 101 0 0 35 0 35 -140 0
-140 0 0 -185z"/>
<path d="M2240 714 c0 -152 12 -189 70 -219 42 -22 138 -19 177 5 60 36 68 59
71 212 l4 138 -41 0 -41 0 0 -115 c0 -151 -16 -185 -86 -185 -14 0 -36 11 -49
25 -24 23 -25 30 -25 150 l0 125 -40 0 -40 0 0 -136z"/>
<path d="M2700 664 l0 -185 38 3 37 3 3 51 3 51 59 6 c71 6 114 30 136 75 26
54 14 110 -32 150 -37 32 -38 32 -141 32 l-103 0 0 -186z m190 96 c43 -43 14
-85 -62 -93 l-48 -5 0 59 0 59 45 0 c32 0 51 -6 65 -20z"/>
<path d="M330 242 c0 -136 -5 -152 -48 -152 -17 0 -27 8 -35 30 -15 40 -47 41
-47 2 0 -36 38 -73 76 -74 86 -3 104 33 104 202 l0 120 -25 0 -25 0 0 -128z"/>
<path d="M690 345 c0 -20 5 -25 25 -25 20 0 25 5 25 25 0 20 -5 25 -25 25 -20
0 -25 -5 -25 -25z"/>
<path d="M1260 211 l0 -161 74 0 c121 0 156 21 156 94 0 24 -7 40 -24 53 -23
19 -23 19 -5 42 25 31 24 64 -4 97 -22 25 -31 28 -110 32 l-87 5 0 -162z m158
100 c8 -5 12 -21 10 -37 -3 -28 -5 -29 -63 -32 l-60 -3 -1 41 0 40 50 0 c28 0
57 -4 64 -9z m6 -127 c10 -4 16 -18 16 -39 0 -28 -5 -35 -31 -44 -18 -6 -48
-11 -69 -11 l-36 0 0 50 1 50 52 0 c28 0 58 -3 67 -6z"/>
<path d="M2040 345 c0 -20 5 -25 25 -25 20 0 25 5 25 25 0 20 -5 25 -25 25
-20 0 -25 -5 -25 -25z"/>
<path d="M503 280 c-41 -9 -63 -27 -63 -51 0 -25 32 -25 48 1 8 13 23 20 45
20 37 0 57 -15 57 -42 0 -14 -8 -18 -39 -18 -50 0 -99 -18 -111 -40 -16 -30
-12 -65 10 -85 23 -21 94 -23 117 -3 13 10 17 10 20 1 3 -7 13 -13 24 -13 17
0 19 8 19 98 0 82 -3 102 -17 114 -23 20 -69 27 -110 18z m85 -147 c-6 -57
-108 -73 -108 -17 0 28 26 42 78 43 30 1 33 -1 30 -26z"/>
<path d="M905 282 c-11 -2 -28 -11 -37 -20 -16 -14 -18 -14 -18 1 0 11 -8 17
-25 17 l-25 0 0 -115 0 -115 25 0 c25 0 25 1 25 85 0 84 0 85 30 100 23 12 35
13 50 5 18 -9 20 -21 20 -100 0 -89 0 -90 25 -90 25 0 25 1 25 85 0 46 -5 95
-11 109 -13 27 -52 45 -84 38z"/>
<path d="M1861 281 c-13 -4 -34 -19 -45 -34 -19 -26 -19 -30 -6 -55 11 -18 31
-31 65 -42 70 -21 77 -27 65 -51 -15 -27 -75 -26 -92 1 -13 21 -48 28 -48 9 0
-44 62 -73 127 -59 43 10 63 32 63 71 0 33 -14 45 -81 67 -42 13 -54 22 -54
37 0 26 55 34 75 11 15 -20 50 -21 50 -3 0 34 -69 61 -119 48z"/>
<path d="M2255 282 c-11 -2 -28 -11 -37 -20 -16 -14 -18 -14 -18 1 0 11 -8 17
-25 17 l-25 0 0 -115 0 -115 25 0 c25 0 25 1 25 85 0 84 0 85 30 100 23 12 35
13 50 5 18 -9 20 -21 20 -100 0 -89 0 -90 25 -90 25 0 25 1 25 85 0 46 -5 95
-11 109 -13 27 -52 45 -84 38z"/>
<path d="M2472 278 c-96 -27 -95 -200 3 -227 56 -15 135 17 135 56 0 20 -33
16 -53 -7 -9 -11 -27 -20 -40 -20 -31 0 -67 27 -67 51 0 17 7 19 85 19 95 0
100 5 71 75 -21 49 -73 70 -134 53z m82 -50 c9 -12 16 -26 16 -30 0 -5 -27 -8
-60 -8 -64 0 -73 9 -43 42 23 25 68 23 87 -4z"/>
<path d="M2711 281 c-13 -4 -34 -19 -45 -34 -19 -26 -19 -30 -6 -55 11 -18 31
-31 65 -42 70 -21 77 -27 65 -51 -15 -27 -75 -26 -92 1 -14 22 -48 27 -48 7 0
-41 65 -70 129 -56 36 7 47 19 58 58 9 36 -8 54 -73 76 -45 16 -59 25 -59 40
0 26 56 33 75 11 15 -20 50 -21 50 -3 0 34 -69 61 -119 48z"/>
<path d="M2943 283 c-26 -5 -63 -48 -63 -73 0 -24 28 -46 80 -61 61 -17 72
-26 59 -50 -14 -27 -74 -26 -91 1 -15 23 -48 27 -48 5 0 -71 169 -78 187 -7
10 43 -11 69 -74 89 -45 14 -58 22 -58 38 0 26 55 34 75 11 15 -20 50 -21 50
-3 0 32 -64 59 -117 50z"/>
<path d="M690 165 l0 -115 25 0 25 0 0 115 0 115 -25 0 -25 0 0 -115z"/>
<path d="M1550 195 c0 -46 5 -96 12 -110 18 -40 84 -50 121 -18 15 15 17 15
17 0 0 -11 8 -17 25 -17 l25 0 0 115 0 115 -25 0 c-24 0 -24 -2 -27 -87 -3
-85 -4 -88 -30 -101 -21 -10 -33 -10 -48 -2 -18 10 -20 21 -20 100 0 89 0 90
-25 90 -25 0 -25 -1 -25 -85z"/>
<path d="M2040 165 l0 -115 25 0 25 0 0 115 0 115 -25 0 -25 0 0 -115z"/>
</g>
</svg>
